<svg width="24" height="24" viewBox="0 0 24 24" fill="none" xmlns="http://www.w3.org/2000/svg">
<g id="Component 1">
<mask id="mask0_1464_5389" style="mask-type:alpha" maskUnits="userSpaceOnUse" x="0" y="0" width="24" height="24">
<rect id="Bounding box" width="24" height="24" fill="#D9D9D9"/>
</mask>
<g mask="url(#mask0_1464_5389)">
<path id="mode_night" d="M10.5 4C11.745 4 12.915 4.23625 14.01 4.70875C15.105 5.18125 16.0575 5.8225 16.8675 6.6325C17.6775 7.4425 18.3188 8.395 18.7913 9.49C19.2638 10.585 19.5 11.755 19.5 13C19.5 14.245 19.2638 15.415 18.7913 16.51C18.3188 17.605 17.6775 18.5575 16.8675 19.3675C16.0575 20.1775 15.105 20.8187 14.01 21.2912C12.915 21.7638 11.745 22 10.5 22C9.705 22 8.92875 21.8988 8.17125 21.6962C7.41375 21.4937 6.69 21.19 6 20.785C7.395 19.975 8.49375 18.88 9.29625 17.5C10.0988 16.12 10.5 14.62 10.5 13C10.5 11.38 10.0988 9.88 9.29625 8.5C8.49375 7.12 7.395 6.025 6 5.215C6.69 4.81 7.41375 4.50625 8.17125 4.30375C8.92875 4.10125 9.705 4 10.5 4Z" fill="#535353"/>
</g>
</g>
</svg>
