<svg width="25" height="24" viewBox="0 0 25 24" fill="none" xmlns="http://www.w3.org/2000/svg">
<mask id="mask0_112_6082" style="mask-type:alpha" maskUnits="userSpaceOnUse" x="0" y="0" width="25" height="24">
<rect x="0.978516" width="24" height="24" fill="#D9D9D9"/>
</mask>
<g mask="url(#mask0_112_6082)">
<path d="M6.34961 19.4736H7.77461L17.5496 9.69863L16.1246 8.27363L6.34961 18.0486V19.4736ZM4.34961 21.4736V17.2236L17.5496 4.04863C17.7496 3.8653 17.9704 3.72363 18.2121 3.62363C18.4538 3.52363 18.7079 3.47363 18.9746 3.47363C19.2413 3.47363 19.4996 3.52363 19.7496 3.62363C19.9996 3.72363 20.2163 3.87363 20.3996 4.07363L21.7746 5.47363C21.9746 5.65697 22.1204 5.87363 22.2121 6.12363C22.3038 6.37363 22.3496 6.62363 22.3496 6.87363C22.3496 7.1403 22.3038 7.39447 22.2121 7.63613C22.1204 7.8778 21.9746 8.09863 21.7746 8.29863L8.59961 21.4736H4.34961ZM16.8246 8.99863L16.1246 8.27363L17.5496 9.69863L16.8246 8.99863Z" fill="#1C1B1F"/>
</g>
</svg>
