<svg width="14" height="14" viewBox="0 0 14 14" fill="none" xmlns="http://www.w3.org/2000/svg">
<g id="Layer_1" clip-path="url(#clip0_1379_81)">
<path id="Vector" d="M11.7764 11.5592V1.67023C11.7648 1.53439 11.7648 1.39781 11.7764 1.26197C11.823 1.0448 11.9517 0.854001 12.1357 0.729343C12.3197 0.604684 12.5447 0.555799 12.7639 0.592881C12.974 0.598458 13.174 0.683556 13.3236 0.830936C13.4733 0.978317 13.5613 1.17697 13.5698 1.38672C13.5755 1.47735 13.5755 1.56826 13.5698 1.6589V12.319C13.5755 12.4059 13.5755 12.493 13.5698 12.5799C13.5698 12.6856 13.549 12.7903 13.5085 12.888C13.468 12.9857 13.4086 13.0744 13.3338 13.1492C13.2589 13.224 13.1701 13.2833 13.0723 13.3237C12.9745 13.3642 12.8698 13.385 12.7639 13.385H8.89336C7.71023 13.3392 6.58908 12.8445 5.7582 12.0017C4.92732 11.159 4.44922 10.0314 4.42123 8.84881C4.42123 7.61269 4.42123 6.37658 4.42123 5.14046C4.40528 4.92318 4.47452 4.70821 4.61432 4.54102C4.75413 4.37383 4.95353 4.26751 5.17036 4.24454C5.38359 4.19758 5.6067 4.23207 5.79576 4.3412C5.98482 4.45034 6.12615 4.62623 6.19192 4.83426C6.2337 4.97785 6.25285 5.12706 6.24868 5.27654C6.24868 6.41059 6.24868 7.54465 6.24868 8.67871C6.24867 9.05198 6.32245 9.42158 6.46576 9.7663C6.60907 10.111 6.81911 10.4241 7.08381 10.6875C7.34852 10.9509 7.66267 11.1595 8.00827 11.3013C8.35386 11.4431 8.72407 11.5153 9.09767 11.5138C9.90356 11.5138 10.7095 11.5138 11.5154 11.5138L11.7764 11.5592Z" fill="#DF4444"/>
<path id="Vector_2" d="M2.61679 2.42983V12.3188C2.63365 12.4544 2.63365 12.5915 2.61679 12.727C2.57034 12.9459 2.43946 13.1377 2.2525 13.2608C2.06553 13.3839 1.83755 13.4284 1.61794 13.3848C1.41102 13.3763 1.21506 13.2895 1.06968 13.1422C0.924292 12.9948 0.84032 12.7978 0.834744 12.591C0.829093 12.5003 0.829093 12.4094 0.834744 12.3188V1.40917C0.840479 1.19443 0.92842 0.990051 1.08046 0.838148C1.2325 0.686245 1.43705 0.598381 1.65199 0.592651H2.92326C3.72915 0.592651 4.53504 0.592651 5.34094 0.592651C6.42575 0.604439 7.47254 0.993613 8.30119 1.69321C9.12985 2.3928 9.68855 3.35907 9.88118 4.42577C9.91742 4.65842 9.9364 4.89343 9.93793 5.12887C9.93793 6.35366 9.93793 7.56711 9.93793 8.79189C9.95309 8.94357 9.92875 9.09659 9.86728 9.23611C9.80581 9.37563 9.7093 9.4969 9.58711 9.58818C9.46491 9.67946 9.32119 9.73763 9.16986 9.75707C9.01853 9.77651 8.86475 9.75655 8.72342 9.69912C8.52859 9.64388 8.35985 9.52105 8.24751 9.35269C8.13517 9.18433 8.08659 8.98147 8.11049 8.78054V6.13818C8.11049 5.67322 8.11049 5.20826 8.11049 4.75463C8.00956 4.15731 7.71287 3.61042 7.26704 3.19988C6.8212 2.78933 6.25148 2.5384 5.6474 2.48652C4.62584 2.40714 3.63834 2.42983 2.61679 2.42983Z" fill="#DF4444"/>
</g>
<defs>
<clipPath id="clip0_1379_81">
<rect width="12.8148" height="12.8148" fill="white" transform="translate(0.789124 0.581421)"/>
</clipPath>
</defs>
</svg>
