<svg width="32" height="32" viewBox="0 0 32 32" fill="none" xmlns="http://www.w3.org/2000/svg">
<g id="icon/ favorite">
<mask id="mask0_1379_1944" style="mask-type:alpha" maskUnits="userSpaceOnUse" x="0" y="0" width="32" height="32">
<rect id="Bounding box" width="32" height="32" fill="#D9D9D9"/>
</mask>
<g mask="url(#mask0_1379_1944)">
<path id="favorite" d="M16 28L14.0667 26.2667C11.8222 24.2445 9.96667 22.5 8.5 21.0333C7.03333 19.5667 5.86667 18.25 5 17.0833C4.13333 15.9167 3.52778 14.8445 3.18333 13.8667C2.83889 12.8889 2.66667 11.8889 2.66667 10.8667C2.66667 8.77778 3.36667 7.03334 4.76667 5.63334C6.16667 4.23334 7.91111 3.53334 10 3.53334C11.1556 3.53334 12.2556 3.77778 13.3 4.26667C14.3444 4.75556 15.2444 5.44445 16 6.33334C16.7556 5.44445 17.6556 4.75556 18.7 4.26667C19.7444 3.77778 20.8444 3.53334 22 3.53334C24.0889 3.53334 25.8333 4.23334 27.2333 5.63334C28.6333 7.03334 29.3333 8.77778 29.3333 10.8667C29.3333 11.8889 29.1611 12.8889 28.8167 13.8667C28.4722 14.8445 27.8667 15.9167 27 17.0833C26.1333 18.25 24.9667 19.5667 23.5 21.0333C22.0333 22.5 20.1778 24.2445 17.9333 26.2667L16 28ZM16 24.4C18.1333 22.4889 19.8889 20.85 21.2667 19.4833C22.6444 18.1167 23.7333 16.9278 24.5333 15.9167C25.3333 14.9056 25.8889 14.0056 26.2 13.2167C26.5111 12.4278 26.6667 11.6445 26.6667 10.8667C26.6667 9.53334 26.2222 8.42223 25.3333 7.53334C24.4444 6.64445 23.3333 6.20001 22 6.20001C20.9556 6.20001 19.9889 6.49445 19.1 7.08334C18.2111 7.67223 17.6 8.42223 17.2667 9.33334H14.7333C14.4 8.42223 13.7889 7.67223 12.9 7.08334C12.0111 6.49445 11.0444 6.20001 10 6.20001C8.66667 6.20001 7.55555 6.64445 6.66667 7.53334C5.77778 8.42223 5.33333 9.53334 5.33333 10.8667C5.33333 11.6445 5.48889 12.4278 5.8 13.2167C6.11111 14.0056 6.66667 14.9056 7.46667 15.9167C8.26667 16.9278 9.35556 18.1167 10.7333 19.4833C12.1111 20.85 13.8667 22.4889 16 24.4Z" fill="#DF4444"/>
</g>
</g>
</svg>
