<svg width="10" height="11" viewBox="0 0 10 11" fill="none" xmlns="http://www.w3.org/2000/svg">
<g id="Layer_1" clip-path="url(#clip0_1514_7211)">
<path id="Vector" d="M8.57675 9.06083V1.33718C8.56766 1.23108 8.56766 1.1244 8.57675 1.01831C8.61315 0.848695 8.71369 0.69967 8.85738 0.602308C9.00108 0.504945 9.17685 0.466763 9.34803 0.495726C9.51208 0.500082 9.66834 0.566546 9.78519 0.681656C9.90205 0.796766 9.97078 0.951921 9.97746 1.11574C9.98188 1.18653 9.98188 1.25753 9.97746 1.32832V9.65427C9.98188 9.72211 9.98188 9.79017 9.97746 9.858C9.97746 9.94059 9.96118 10.0224 9.92955 10.0987C9.89792 10.175 9.85156 10.2443 9.79311 10.3027C9.73466 10.3611 9.66527 10.4074 9.58891 10.439C9.51254 10.4706 9.43069 10.4869 9.34803 10.4869H6.32498C5.40092 10.4511 4.52525 10.0647 3.87631 9.40647C3.22736 8.74822 2.85394 7.86759 2.83208 6.94391C2.83208 5.97845 2.83208 5.01301 2.83208 4.04755C2.81962 3.87785 2.87371 3.70995 2.9829 3.57937C3.09209 3.44878 3.24782 3.36575 3.41718 3.34781C3.58372 3.31113 3.75798 3.33806 3.90564 3.42331C4.0533 3.50855 4.16369 3.64592 4.21506 3.8084C4.24769 3.92055 4.26265 4.03709 4.25939 4.15384C4.25939 5.03957 4.25939 5.92531 4.25939 6.81105C4.25938 7.10259 4.317 7.39127 4.42894 7.66051C4.54087 7.92974 4.70491 8.17424 4.91166 8.37998C5.1184 8.58572 5.36377 8.74864 5.63369 8.8594C5.90361 8.97015 6.19276 9.02657 6.48456 9.0254C7.11399 9.0254 7.74342 9.0254 8.37286 9.0254L8.57675 9.06083Z" fill="#0095FF"/>
<path id="Vector_2" d="M1.42268 1.93054V9.65418C1.43585 9.76006 1.43585 9.86716 1.42268 9.97305C1.3864 10.144 1.28418 10.2938 1.13815 10.3899C0.992131 10.4861 0.814068 10.5209 0.642541 10.4868C0.480927 10.4801 0.327879 10.4124 0.214328 10.2973C0.100778 10.1822 0.0351924 10.0283 0.0308373 9.86676C0.0264234 9.79597 0.0264234 9.72497 0.0308373 9.65418V1.13337C0.0353163 0.965644 0.104002 0.80602 0.222749 0.687378C0.341496 0.568736 0.501262 0.500111 0.669136 0.495636H1.66205C2.29148 0.495636 2.92091 0.495636 3.55034 0.495636C4.39762 0.504842 5.2152 0.808802 5.86241 1.35521C6.50962 1.90162 6.94599 2.65631 7.09644 3.48944C7.12474 3.67115 7.13956 3.8547 7.14077 4.03859C7.14077 4.99519 7.14077 5.94294 7.14077 6.89954C7.1526 7.01801 7.13359 7.13753 7.08558 7.24649C7.03757 7.35546 6.96219 7.45018 6.86676 7.52148C6.77132 7.59277 6.65906 7.6382 6.54087 7.65339C6.42268 7.66857 6.30257 7.65298 6.19218 7.60812C6.04002 7.56498 5.90822 7.46904 5.82048 7.33755C5.73274 7.20605 5.6948 7.04761 5.71346 6.89068V4.8269C5.71346 4.46375 5.71346 4.10059 5.71346 3.7463C5.63464 3.27977 5.40291 2.85263 5.0547 2.53197C4.70648 2.21132 4.26151 2.01534 3.7897 1.97482C2.99183 1.91282 2.22055 1.93054 1.42268 1.93054Z" fill="#0095FF"/>
</g>
<defs>
<clipPath id="clip0_1514_7211">
<rect width="10.0089" height="10.0089" fill="white" transform="translate(-0.0045166 0.486816)"/>
</clipPath>
</defs>
</svg>
