<svg width="17" height="17" viewBox="0 0 17 17" fill="none" xmlns="http://www.w3.org/2000/svg">
<g id="icon/ shopping_cart">
<mask id="mask0_1369_6163" style="mask-type:alpha" maskUnits="userSpaceOnUse" x="0" y="0" width="17" height="17">
<rect id="Bounding box" x="0.5" y="0.5" width="16" height="16" fill="#D9D9D9"/>
</mask>
<g mask="url(#mask0_1369_6163)">
<path id="shopping_cart" d="M5.16663 15.1667C4.79996 15.1667 4.48607 15.0361 4.22496 14.775C3.96385 14.5139 3.83329 14.2 3.83329 13.8333C3.83329 13.4667 3.96385 13.1528 4.22496 12.8917C4.48607 12.6306 4.79996 12.5 5.16663 12.5C5.53329 12.5 5.84718 12.6306 6.10829 12.8917C6.3694 13.1528 6.49996 13.4667 6.49996 13.8333C6.49996 14.2 6.3694 14.5139 6.10829 14.775C5.84718 15.0361 5.53329 15.1667 5.16663 15.1667ZM11.8333 15.1667C11.4666 15.1667 11.1527 15.0361 10.8916 14.775C10.6305 14.5139 10.5 14.2 10.5 13.8333C10.5 13.4667 10.6305 13.1528 10.8916 12.8917C11.1527 12.6306 11.4666 12.5 11.8333 12.5C12.2 12.5 12.5138 12.6306 12.775 12.8917C13.0361 13.1528 13.1666 13.4667 13.1666 13.8333C13.1666 14.2 13.0361 14.5139 12.775 14.775C12.5138 15.0361 12.2 15.1667 11.8333 15.1667ZM4.59996 4.50001L6.19996 7.83334H10.8666L12.7 4.50001H4.59996ZM3.96663 3.16668H13.8C14.0555 3.16668 14.25 3.28057 14.3833 3.50834C14.5166 3.73612 14.5222 3.96668 14.4 4.20001L12.0333 8.46668C11.9111 8.6889 11.7472 8.86112 11.5416 8.98334C11.3361 9.10557 11.1111 9.16668 10.8666 9.16668H5.89996L5.16663 10.5H13.1666V11.8333H5.16663C4.66663 11.8333 4.28885 11.6139 4.03329 11.175C3.77774 10.7361 3.76663 10.3 3.99996 9.86668L4.89996 8.23334L2.49996 3.16668H1.16663V1.83334H3.33329L3.96663 3.16668Z" fill="white"/>
</g>
</g>
</svg>
